<svg width="50" height="49" viewBox="0 0 50 49" fill="none" xmlns="http://www.w3.org/2000/svg">
<path d="M8.85417 0H41.1458C46.0417 0 50 3.93803 50 8.80876V39.6912C50 44.562 46.0417 48.5 41.1458 48.5H8.85417C3.95833 48.5 0 44.562 0 39.6912V8.80876C0 3.93803 3.95833 0 8.85417 0Z" fill="#330000"/>
<path d="M24.1666 29.0169H16.4166L14.8333 33.8876C14.7916 34.0741 14.625 34.1985 14.4375 34.1778H10.5208C10.2916 34.1778 10.2291 34.0534 10.2916 33.8047L17 14.5912C17.0625 14.384 17.125 14.156 17.2083 13.9073C17.2916 13.472 17.3333 13.016 17.3333 12.56C17.3125 12.4564 17.3958 12.3528 17.5 12.332H22.8958C23.0625 12.332 23.1458 12.3942 23.1666 12.4979L30.7708 33.8462C30.8333 34.0741 30.7708 34.1778 30.5625 34.1778H26.2083C26.0625 34.1985 25.9166 34.0949 25.875 33.9498L24.1666 29.0169ZM17.625 24.8094H22.9166C22.7916 24.3741 22.625 23.856 22.4375 23.3171C22.25 22.7575 22.0625 22.1564 21.875 21.5346C21.6666 20.8921 21.4791 20.2703 21.2708 19.6278C21.0625 18.9853 20.875 18.3842 20.7083 17.7831C20.5416 17.2028 20.3958 16.6639 20.25 16.1665H20.2083C20.0208 17.0577 19.7916 17.9489 19.5 18.8402C19.1875 19.835 18.875 20.8714 18.5416 21.9077C18.25 22.9647 17.9375 23.9389 17.625 24.8094ZM35.4166 15.9592C34.7291 15.9799 34.0625 15.7105 33.5625 15.2338C33.0833 14.7156 32.8333 14.0316 32.8541 13.3269C32.8333 12.6222 33.1041 11.959 33.6041 11.4823C34.1041 11.0056 34.7708 10.7568 35.4583 10.7568C36.2708 10.7568 36.8958 11.0056 37.3541 11.4823C37.8125 11.9797 38.0625 12.6429 38.0416 13.3269C38.0625 14.0316 37.8125 14.7156 37.3125 15.2338C36.8333 15.7312 36.125 16.0006 35.4166 15.9592ZM33.0833 33.9498V17.9904C33.0833 17.7831 33.1666 17.7002 33.3541 17.7002H37.4791C37.6666 17.7002 37.75 17.8038 37.75 17.9904V33.9498C37.75 34.1778 37.6666 34.2814 37.4791 34.2814H33.3958C33.1875 34.2814 33.0833 34.157 33.0833 33.9498Z" fill="#FF9A00"/>
</svg>
